<svg width="114" height="85" viewBox="0 0 114 85" fill="none" xmlns="http://www.w3.org/2000/svg">
<path d="M114 74.6963H0V74.7533H114V74.6963Z" fill="#EBEBEB"/>
<path d="M102.579 78.3672H95.0273V78.4242H102.579V78.3672Z" fill="#EBEBEB"/>
<path d="M75.5204 78.9883H73.5391V79.0453H75.5204V78.9883Z" fill="#EBEBEB"/>
<path d="M94.8011 76.251H90.4258V76.308H94.8011V76.251Z" fill="#EBEBEB"/>
<path d="M21.8083 76.6338H11.9609V76.6908H21.8083V76.6338Z" fill="#EBEBEB"/>
<path d="M25.284 76.6338H23.8398V76.6908H25.284V76.6338Z" fill="#EBEBEB"/>
<path d="M51.3356 77.5967H29.9766V77.6537H51.3356V77.5967Z" fill="#EBEBEB"/>
<path d="M54.039 64.5211H10.0144C9.66956 64.5205 9.33901 64.383 9.09535 64.1388C8.85169 63.8945 8.71484 63.5635 8.71484 63.2184V1.29134C8.71785 0.948202 8.85602 0.62011 9.09935 0.378324C9.34269 0.136539 9.67153 0.000587806 10.0144 0H54.039C54.3842 0 54.7154 0.137253 54.9595 0.381565C55.2037 0.625876 55.3408 0.957234 55.3408 1.30274V63.2184C55.3408 63.5639 55.2037 63.8953 54.9595 64.1396C54.7154 64.3839 54.3842 64.5211 54.039 64.5211ZM10.0144 0.0456304C9.68468 0.0462348 9.36862 0.177745 9.13565 0.411294C8.90269 0.644844 8.77184 0.961349 8.77184 1.29134V63.2184C8.77184 63.5484 8.90269 63.8649 9.13565 64.0984C9.36862 64.332 9.68468 64.4635 10.0144 64.4641H54.039C54.3689 64.4635 54.6852 64.3321 54.9186 64.0986C55.1519 63.8651 55.2832 63.5486 55.2838 63.2184V1.29134C55.2832 0.961139 55.1519 0.644639 54.9186 0.411155C54.6852 0.177671 54.3689 0.0462335 54.039 0.0456304H10.0144Z" fill="#EBEBEB"/>
<path d="M103.356 64.5211H59.3292C58.9841 64.5205 58.6533 64.3831 58.4093 64.1389C58.1653 63.8947 58.0279 63.5637 58.0273 63.2184V1.29134C58.0309 0.947994 58.1696 0.619904 58.4133 0.378182C58.657 0.136459 58.9861 0.000581395 59.3292 0H103.356C103.699 0.00118741 104.027 0.137404 104.27 0.379125C104.512 0.620847 104.65 0.948596 104.653 1.29134V63.2184C104.653 63.5631 104.517 63.8938 104.274 64.138C104.03 64.3822 103.701 64.5199 103.356 64.5211ZM59.3292 0.0456304C58.9992 0.0462335 58.683 0.177671 58.4496 0.411155C58.2163 0.644639 58.0849 0.961139 58.0843 1.29134V63.2184C58.0849 63.5486 58.2163 63.8651 58.4496 64.0986C58.683 64.3321 58.9992 64.4635 59.3292 64.4641H103.356C103.686 64.4635 104.002 64.3321 104.236 64.0986C104.469 63.8651 104.6 63.5486 104.601 63.2184V1.29134C104.6 0.961139 104.469 0.644639 104.236 0.411155C104.002 0.177671 103.686 0.0462335 103.356 0.0456304H59.3292Z" fill="#EBEBEB"/>
<path d="M96.148 73.2892L96.0454 50.2208L93.8041 47.3279L92.7667 39.6985L91.4284 37.3007L90.7056 31.9619L89.4813 34.394L88.7973 48.9957L88.1133 47.3233L87.5615 41.6424L86.4534 43.4676L85.0444 43.9969L84.2373 56.0638L63.6808 59.8146L59.3967 54.2112L57.6547 43.2919L55.8604 40.4423L55.3109 35.1788L53.5849 36.0915V41.6446L52.1166 42.936L51.4896 54.2089L49.6474 58.1058L49.123 51.1403C49.123 51.1403 47.7117 49.4155 47.4016 48.998C47.0915 48.5804 45.3085 41.0127 45.5776 40.44C45.8466 39.8674 45.1923 34.9644 45.1923 34.9644L43.4139 36.5934V44.7361L41.5579 45.4548L41.2684 49.0002L36.5351 50.1707L35.7736 44.7315H33.6623L33.0011 47.8298L31.0791 47.8116L28.0444 51.1426L25.5364 43.6433L22.9942 45.4502L21.1702 38.9547L19.2459 42.7626L18.5345 55.1101L17.5473 55.2858L17.0913 52.6256L15.2422 55.2858V73.2892H96.148Z" fill="#F5F5F5"/>
<path d="M54.264 19.5384H42.921C42.4409 19.5314 41.9832 19.3339 41.6486 18.9893C41.314 18.6446 41.13 18.1811 41.1369 17.7006C41.1439 17.2202 41.3413 16.7622 41.6857 16.4274C42.0301 16.0926 42.4933 15.9084 42.9734 15.9154C43.1494 15.9157 43.3244 15.9411 43.4933 15.9906C43.4658 15.8064 43.452 15.6203 43.4522 15.434C43.4529 14.4158 43.8573 13.4395 44.5768 12.7195C45.2963 11.9995 46.272 11.5948 47.2895 11.5942C47.5266 11.5952 47.7631 11.6173 47.9963 11.6603C48.3737 11.0372 48.9437 10.554 49.62 10.2839C50.2963 10.0138 51.0422 9.97139 51.7447 10.1632C52.4472 10.355 53.0682 10.7705 53.5137 11.3469C53.9592 11.9233 54.205 12.6292 54.2138 13.3578H54.264C54.6769 13.3466 55.0879 13.4182 55.4727 13.5686C55.8574 13.719 56.2082 13.945 56.5042 14.2333C56.8002 14.5216 57.0355 14.8663 57.1962 15.2471C57.3569 15.6279 57.4396 16.037 57.4396 16.4504C57.4396 16.8637 57.3569 17.2729 57.1962 17.6537C57.0355 18.0345 56.8002 18.3792 56.5042 18.6675C56.2082 18.9558 55.8574 19.1818 55.4727 19.3321C55.0879 19.4825 54.6769 19.5542 54.264 19.543V19.5384Z" fill="#F5F5F5"/>
<path d="M89.029 17.9234H84.7609C84.5795 17.921 84.4064 17.8466 84.2799 17.7165C84.1533 17.5864 84.0836 17.4114 84.086 17.2298C84.0884 17.0483 84.1628 16.8752 84.2928 16.7485C84.4228 16.6219 84.5977 16.5521 84.7791 16.5545C84.8455 16.5541 84.9115 16.5633 84.9752 16.5819C84.9652 16.5124 84.9598 16.4422 84.9592 16.372C84.9598 15.9892 85.1121 15.6222 85.3826 15.3515C85.6531 15.0808 86.0199 14.9284 86.4025 14.9278C86.492 14.928 86.5813 14.9364 86.6692 14.9529C86.8112 14.7183 87.0256 14.5364 87.2801 14.4347C87.5346 14.333 87.8153 14.317 88.0797 14.3892C88.3441 14.4614 88.5778 14.6179 88.7454 14.8348C88.9129 15.0518 89.0053 15.3175 89.0085 15.5917H89.029C89.1859 15.5848 89.3426 15.6097 89.4896 15.665C89.6366 15.7202 89.7709 15.8047 89.8843 15.9134C89.9978 16.022 90.0881 16.1525 90.1498 16.297C90.2115 16.4415 90.2433 16.597 90.2433 16.7542C90.2433 16.9113 90.2115 17.0668 90.1498 17.2113C90.0881 17.3558 89.9978 17.4863 89.8843 17.5949C89.7709 17.7036 89.6366 17.7881 89.4896 17.8433C89.3426 17.8986 89.1859 17.9235 89.029 17.9166V17.9234Z" fill="#F5F5F5"/>
<path d="M29.0909 24.4121H22.9167C22.7873 24.4103 22.6596 24.383 22.5408 24.3318C22.422 24.2806 22.3144 24.2065 22.2242 24.1137C22.134 24.021 22.063 23.9113 22.0151 23.791C21.9673 23.6708 21.9436 23.5422 21.9454 23.4128C21.9472 23.2834 21.9745 23.1556 22.0256 23.0367C22.0768 22.9178 22.1508 22.8101 22.2436 22.7199C22.3363 22.6296 22.4459 22.5585 22.5661 22.5107C22.6863 22.4628 22.8147 22.4391 22.944 22.4409C23.0398 22.4404 23.1351 22.4543 23.2268 22.4819C23.2122 22.3814 23.2046 22.2801 23.204 22.1785C23.2046 21.6246 23.4249 21.0937 23.8165 20.7022C24.2081 20.3108 24.7389 20.0909 25.2924 20.0909C25.4218 20.0903 25.5509 20.1025 25.6778 20.1274C25.8831 19.7902 26.1923 19.5287 26.5588 19.3822C26.9252 19.2357 27.3293 19.2121 27.7104 19.3149C28.0914 19.4178 28.4289 19.6415 28.672 19.9526C28.9152 20.2636 29.051 20.6452 29.059 21.04H29.0909C29.5262 21.0561 29.9382 21.2404 30.2405 21.5542C30.5428 21.868 30.7116 22.2868 30.7116 22.7226C30.7116 23.1585 30.5428 23.5773 30.2405 23.8911C29.9382 24.2049 29.5262 24.3892 29.0909 24.4053V24.4121Z" fill="#F5F5F5"/>
<path d="M69.1495 21.8594H62.9753C62.714 21.8557 62.465 21.7484 62.2828 21.561C62.1007 21.3736 62.0004 21.1215 62.004 20.8601C62.0076 20.5987 62.1149 20.3494 62.3022 20.1671C62.4894 19.9849 62.7414 19.8845 63.0026 19.8881C63.0985 19.8885 63.1938 19.9031 63.2854 19.9315C63.2709 19.831 63.2633 19.7296 63.2626 19.6281C63.2626 19.0738 63.4826 18.5422 63.8743 18.1503C64.2659 17.7584 64.7971 17.5382 65.351 17.5382C65.4803 17.5387 65.6093 17.5509 65.7364 17.5747C65.9417 17.2374 66.2508 16.976 66.6173 16.8295C66.9838 16.683 67.3879 16.6594 67.769 16.7622C68.15 16.865 68.4874 17.0888 68.7306 17.3998C68.9738 17.7109 69.1096 18.0925 69.1176 18.4873H69.1495C69.5848 18.5033 69.9968 18.6876 70.2991 19.0014C70.6013 19.3152 70.7702 19.7341 70.7702 20.1699C70.7702 20.6057 70.6013 21.0246 70.2991 21.3384C69.9968 21.6522 69.5848 21.8365 69.1495 21.8525V21.8594Z" fill="#F5F5F5"/>
<path d="M16.8741 67.017L20.4902 65.9151L21.3041 50.8069L23.7711 48.1946L24.6261 35.2401L26.8422 31.4254L27.8728 34.3914L29.5554 39.0868L30.1163 43.6909L31.0716 47.7976L33.1236 52.7234L34.975 50.1977C34.975 50.1977 35.9828 47.6881 36.4638 47.3709C36.9449 47.0538 38.9217 46.7686 38.9217 46.7686L41.6577 50.7932V53.9234L44.4644 56.2049L46.1903 58.8583C46.9473 60.0174 47.6564 62.0844 48.9263 62.1277C50.6614 62.1871 52.8867 57.4073 53.7143 55.4315C54.371 53.8869 54.9045 52.2123 55.6774 50.8C57.49 47.4896 60.6045 45.5731 61.3113 41.3934C62.0424 42.4246 62.7728 43.4566 63.5024 44.4894C63.6916 44.7563 63.9128 45.0415 64.1704 45.0233C64.428 45.005 64.5808 44.7654 64.7472 44.5327C65.8508 43.0087 66.9862 41.4162 67.5722 39.3263C67.7568 38.6738 67.8845 37.9779 68.1194 37.3619C68.4568 36.4744 68.9903 35.8105 69.4691 35.0804C71.3068 32.3107 72.3624 28.5827 73.3748 24.9551C75.4701 28.5416 79.02 25.1285 79.9617 30.9167C80.331 33.1982 80.7642 35.4295 81.3 37.6289C83.1575 45.2912 86.0017 52.6797 89.7611 59.609C91.174 62.2051 92.7235 64.7244 94.4032 67.1562C95.3228 68.4719 96.2568 69.7381 97.2053 70.9549C97.7844 71.6964 99.5628 74.6601 100.297 74.6601H12.9297L16.8741 67.017Z" fill="#EBEBEB"/>
<path d="M19.6836 74.7473L23.4274 66.8943C23.4274 66.8943 25.1579 66.8669 25.525 66.308C25.892 65.749 26.893 64.3938 28.058 62.5206C29.2231 60.6475 31.1246 57.0633 31.1246 57.0633L33.5597 58.3021C33.5597 58.3021 35.0029 63.4059 35.3654 64.647C35.728 65.8882 36.9067 68.6442 36.9067 68.6442L40.3906 70.2983C40.3906 70.2983 40.7212 67.4031 41.7403 65.4729C42.7595 63.5428 44.2985 60.0954 44.2985 60.0954L45.7349 53.422L47.6204 51.0127L49.4786 54.7567C49.4786 54.7567 50.6825 56.7096 50.874 57.7842C51.0655 58.8588 51.558 61.916 51.8476 62.5229C52.1371 63.1298 53.6031 66.7414 53.6031 66.7414L54.5152 68.7948L58.2384 68.9317C58.2384 68.9317 58.5941 68.156 59.2028 66.7506C59.8116 65.3452 60.1992 63.6637 60.5024 63.196C60.8057 62.7283 61.8704 57.7933 61.8704 57.7933L63.2384 56.1096L68.6648 69.0686C68.6648 69.0686 73.9749 71.4915 75.0488 70.9691C76.1227 70.4466 76.6676 70.8619 77.6617 69.7599C78.6558 68.6579 81.6654 56.5271 81.784 55.8427C81.9025 55.1582 82.265 55.2632 83.5282 54.1041C84.7913 52.9451 85.4319 51.9299 85.4707 52.6463C85.5095 53.3627 86.9915 57.9165 87.1078 59.2239C87.224 60.5312 87.6048 62.532 87.7302 63.9443C87.8476 65.1739 88.1649 66.3762 88.6696 67.5035C89.0298 68.2518 91.588 74.7678 91.588 74.7678L19.6836 74.7473Z" fill="#E0E0E0"/>
<path d="M57.0038 84.9993C81.4186 84.9993 101.211 83.843 101.211 82.4167C101.211 80.9903 81.4186 79.834 57.0038 79.834C32.589 79.834 12.7969 80.9903 12.7969 82.4167C12.7969 83.843 32.589 84.9993 57.0038 84.9993Z" fill="#F5F5F5"/>
<path d="M67.89 47.1546L65.7263 47.3668C65.4779 47.224 65.2074 47.1238 64.926 47.0702C64.6319 47.0588 63.5899 47.166 63.6218 47.255C63.6537 47.344 63.9935 48.3957 64.2693 48.5783C64.5452 48.7608 65.7331 48.6558 65.7605 48.544C65.7827 48.4536 65.8101 48.3644 65.8425 48.2771L67.9561 48.017L67.89 47.1546Z" fill="#EEC1BB"/>
<path d="M75.4699 45.185C75.4699 45.185 74.8383 45.7029 74.0289 46.3029C72.9573 47.0991 71.5802 48.0414 70.9623 48.1281C69.8793 48.265 66.6759 48.2992 66.6759 48.2992L66.4297 47.1585C66.4297 47.1585 70.8734 46.0998 71.188 45.9515C71.5027 45.8032 73.0576 43.3232 73.0576 43.3232L73.7872 43.8891L75.4699 45.185Z" fill="#263238"/>
<path opacity="0.2" d="M75.4704 45.1852C75.4704 45.1852 74.8388 45.7031 74.0294 46.3032C73.6578 45.4567 73.5734 44.389 73.7877 43.8779L75.4704 45.1852Z" fill="black"/>
<path d="M91.3721 77.0921L92.9818 77.1172C93.0083 77.1177 93.0338 77.1272 93.0541 77.1442C93.0744 77.1613 93.0883 77.1847 93.0935 77.2107L93.3352 78.3925C93.3446 78.4433 93.3335 78.4958 93.3045 78.5385C93.2755 78.5812 93.2308 78.6107 93.1802 78.6207C93.1658 78.623 93.1512 78.623 93.1368 78.6207C92.617 78.6047 92.2385 78.5659 91.5864 78.5568C91.1829 78.5568 89.9676 78.5728 89.4136 78.5568C88.8596 78.5408 88.7934 77.9978 89.0214 77.9522C90.0452 77.7446 90.8181 77.448 91.1487 77.1605C91.2114 77.1094 91.2916 77.0848 91.3721 77.0921Z" fill="#263238"/>
<path d="M93.3352 77.174H91.1441C91.1441 77.174 86.4587 67.8038 85.7291 65.4151C84.9995 63.0263 83.7113 57.0374 83.7113 57.0374C83.668 57.0374 83.1961 57.0921 82.4733 57.1811C79.8376 57.5051 73.8572 58.347 73.1458 59.3782C72.2338 60.7038 69.5639 70.3295 69.5639 70.3295L67.6875 69.1545C67.6875 69.1545 69.0418 61.0916 70.346 57.6192C71.543 54.4364 79.7783 53.5307 79.9083 53.136C80.0747 52.6318 79.6165 50.8385 79.6165 50.8385L85.6744 48.0186C85.6744 48.0186 87.3251 50.8773 87.6694 51.8561C88.6247 54.6463 89.2882 62.1229 89.4524 63.469C89.7625 66.0379 93.3352 77.174 93.3352 77.174Z" fill="#467BFF"/>
<path d="M67.9122 69.4468L69.3349 70.1997C69.3579 70.2122 69.376 70.232 69.3863 70.256C69.3967 70.28 69.3986 70.3068 69.3919 70.332L69.0727 71.4979C69.0584 71.5477 69.0249 71.5899 68.9796 71.6151C68.9343 71.6403 68.8809 71.6466 68.831 71.6325L68.79 71.6165C68.334 71.3656 68.0148 71.1602 67.4357 70.8545C67.08 70.6674 65.9879 70.1358 65.4954 69.8757C65.0029 69.6156 65.1967 69.0977 65.4201 69.1593C66.4279 69.44 67.2441 69.5244 67.6773 69.4194C67.7562 69.3977 67.8404 69.4075 67.9122 69.4468Z" fill="#263238"/>
<path opacity="0.2" d="M82.4706 57.1814C82.5732 56.7045 82.6256 56.4011 82.6256 56.4011C80.9065 55.0687 81.1003 53.5127 81.1003 53.5127C81.855 54.4025 83.5627 54.7561 83.5627 54.7561L83.7086 57.0376C83.6767 57.0376 83.1933 57.0924 82.4706 57.1814Z" fill="black"/>
<path d="M85.8874 48.7649L85.5614 48.0713L79.793 50.946L80.1874 51.5483L85.8874 48.7649Z" fill="#263238"/>
<path opacity="0.2" d="M85.8874 48.7649L85.5614 48.0713L79.793 50.946L80.1874 51.5483L85.8874 48.7649Z" fill="white"/>
<path d="M81.4557 50.136L81.7523 50.7588C81.7582 50.7699 81.7618 50.782 81.7629 50.7944C81.764 50.8069 81.7626 50.8195 81.7588 50.8314C81.755 50.8433 81.7488 50.8543 81.7406 50.8638C81.7325 50.8733 81.7225 50.881 81.7113 50.8866L80.7986 51.2904C80.7783 51.2983 80.7557 51.2982 80.7354 51.2902C80.7151 51.2822 80.6986 51.2668 80.6891 51.2471L80.3652 50.6493C80.3584 50.638 80.3541 50.6255 80.3524 50.6125C80.3507 50.5994 80.3517 50.5862 80.3553 50.5736C80.3589 50.561 80.3651 50.5492 80.3735 50.5391C80.3819 50.529 80.3922 50.5207 80.4039 50.5147L81.3439 50.0949C81.3643 50.0862 81.3872 50.0856 81.408 50.0932C81.4288 50.1008 81.4459 50.1161 81.4557 50.136Z" fill="white"/>
<path d="M82.6289 49.5337L82.9917 50.3779L83.2905 50.2912L82.8913 49.4014L82.6289 49.5337Z" fill="#467BFF"/>
<path d="M84.9336 48.3836L85.3625 49.1912L85.5724 49.1296L85.1184 48.29L84.9336 48.3836Z" fill="#467BFF"/>
<path d="M80.0074 50.8389L80.4158 51.6374L80.2766 51.7674L79.793 50.9461L80.0074 50.8389Z" fill="#467BFF"/>
<path d="M85.3172 47.9576L79.5853 50.6201C79.5374 50.6431 79.4855 50.6562 79.4325 50.6589C79.3633 50.6623 79.2943 50.6477 79.2324 50.6165C79.1704 50.5853 79.1176 50.5386 79.0791 50.4809C78.8078 50.0817 78.1443 49.1622 77.3144 48.0876C76.0262 46.4198 74.3321 44.3779 73.0508 43.3124C74.0352 42.2826 75.2764 41.5344 76.6463 41.145C80.8894 40.0362 83.2013 41.7427 85.5566 47.3347C85.6048 47.4494 85.6069 47.5783 85.5622 47.6944C85.5176 47.8105 85.4298 47.9048 85.3172 47.9576Z" fill="#263238"/>
<path d="M79.3594 50.6535L79.5874 51.0231L85.8414 48.194L85.5701 47.667L79.3594 50.6535Z" fill="#263238"/>
<path opacity="0.2" d="M79.3594 50.6535L79.5874 51.0231L85.8414 48.194L85.5701 47.667L79.3594 50.6535Z" fill="black"/>
<path opacity="0.2" d="M83.2894 48.0192C83.1457 48.5759 80.8954 49.8695 79.4384 50.6589C79.3692 50.6623 79.3002 50.6477 79.2383 50.6165C79.1764 50.5853 79.1236 50.5386 79.085 50.4809C78.8137 50.0817 78.1502 49.1622 77.3203 48.0876C78.3532 47.2275 79.8055 45.7582 79.8055 45.7582L79.4817 43.1322L81.9897 42.6006C81.9897 42.6006 83.506 47.1933 83.2894 48.0192Z" fill="black"/>
<path d="M77.8242 40.8388C77.7158 41.2768 77.5101 41.6846 77.2223 42.032L76.552 42.1096L76.251 42.6024L75.8498 42.1917H75.3687C75.4786 42.0778 75.561 41.9403 75.6096 41.7896C75.6582 41.639 75.6717 41.4792 75.6491 41.3225C75.6397 41.2675 75.626 41.2133 75.6081 41.1605C75.4873 40.853 75.2996 40.5763 75.0586 40.3505L75.4713 39.187L75.4986 39.1094L75.8703 38.0576C76.0624 38.6272 76.3098 39.1767 76.609 39.698L76.6911 39.8304C77.0194 40.3254 77.4001 40.7315 77.8242 40.8388Z" fill="#EEC1BB"/>
<path d="M77.6016 49.4814L75.8574 50.7773C75.5715 50.7828 75.2885 50.8368 75.0207 50.9371C74.7607 51.0785 73.9217 51.7059 73.9969 51.7675C74.0722 51.8291 74.9089 52.5569 75.2327 52.566C75.5565 52.5752 76.5277 51.8816 76.4913 51.7698C76.4548 51.658 76.4251 51.4983 76.4251 51.4983L78.1032 50.1841L77.6016 49.4814Z" fill="#EEC1BB"/>
<path d="M80.4162 41.0396C82.4682 40.9735 82.6962 46.6795 82.2105 47.2818C81.7249 47.8842 77.3177 51.0646 77.3177 51.0646L76.3008 50.1771C76.3008 50.1771 80.6784 46.4012 80.5119 45.938C80.3455 45.4749 79.3469 43.5767 79.4312 42.5979C79.5156 41.6191 79.9556 41.067 80.4162 41.0396Z" fill="#263238"/>
<path opacity="0.2" d="M76.7096 39.7416C76.7096 39.7416 76.7096 39.7713 76.7096 39.8237C76.6754 40.1066 76.4953 41.0443 75.6608 41.3113C75.6515 41.2563 75.6377 41.2021 75.6198 41.1493C75.499 40.8418 75.3113 40.5652 75.0703 40.3394L75.483 39.1758C75.8789 39.3099 76.2608 39.4826 76.623 39.6914L76.7096 39.7416Z" fill="black"/>
<path d="M75.1657 34.9986C74.948 34.8785 74.6955 34.8372 74.4509 34.8817C74.2062 34.9261 73.9844 35.0537 73.8228 35.2427C73.23 35.9272 72.9678 36.9539 73.7635 37.5242C74.5592 38.0946 76.4197 35.9888 76.4197 35.9888L75.1657 34.9986Z" fill="#263238"/>
<path d="M77.423 37.8728C76.9989 39.1162 76.8096 39.8645 75.9911 40.3322C74.7599 41.0441 73.36 40.0311 73.4033 38.6827C73.4466 37.4712 74.142 35.6414 75.5169 35.4886C75.8203 35.4519 76.128 35.4933 76.411 35.609C76.6939 35.7246 76.9426 35.9107 77.1335 36.1495C77.3244 36.3883 77.4512 36.6719 77.5019 36.9735C77.5525 37.2751 77.5254 37.5846 77.423 37.8728Z" fill="#EEC1BB"/>
<path d="M75.4066 37.6854C75.3861 37.7904 75.3016 37.8565 75.2332 37.8383C75.1647 37.82 75.1351 37.7197 75.1625 37.6101C75.1898 37.5006 75.2697 37.439 75.3359 37.4573C75.402 37.4755 75.4363 37.5805 75.4066 37.6854Z" fill="#263238"/>
<path d="M74.2422 37.3646C74.2217 37.4672 74.135 37.5334 74.0688 37.5151C74.0027 37.4969 73.9707 37.3988 73.9981 37.287C74.0255 37.1752 74.1053 37.1159 74.1715 37.1341C74.2377 37.1524 74.2696 37.2665 74.2422 37.3646Z" fill="#263238"/>
<path d="M74.6005 37.5166C74.3939 37.7966 74.1498 38.0469 73.875 38.2604C73.9324 38.3298 74.0041 38.3861 74.0852 38.4255C74.1663 38.4649 74.2549 38.4863 74.345 38.4885L74.6005 37.5166Z" fill="#D4827D"/>
<path d="M75.2411 37.1631C75.2496 37.1553 75.26 37.1499 75.2712 37.1475C75.2824 37.1451 75.2941 37.1457 75.305 37.1494C75.3804 37.1763 75.461 37.1849 75.5403 37.1746C75.6196 37.1643 75.6954 37.1353 75.7613 37.0901C75.7729 37.0787 75.7884 37.0723 75.8047 37.0723C75.8209 37.0723 75.8365 37.0787 75.848 37.0901C75.854 37.0959 75.8588 37.1028 75.8621 37.1104C75.8653 37.118 75.867 37.1263 75.867 37.1346C75.867 37.1429 75.8653 37.1511 75.8621 37.1588C75.8588 37.1664 75.854 37.1733 75.848 37.1791C75.7669 37.2364 75.6732 37.2736 75.5748 37.2874C75.4764 37.3013 75.3761 37.2916 75.2822 37.2589C75.2744 37.2566 75.2671 37.2527 75.2608 37.2475C75.2545 37.2423 75.2493 37.236 75.2454 37.2287C75.2416 37.2215 75.2393 37.2136 75.2385 37.2055C75.2378 37.1973 75.2387 37.1891 75.2411 37.1814C75.2408 37.1753 75.2408 37.1692 75.2411 37.1631Z" fill="#263238"/>
<path d="M75.5371 38.8724C75.3946 38.8117 75.2397 38.7861 75.0853 38.7976C74.9309 38.8091 74.7815 38.8574 74.6496 38.9385C74.6438 38.9452 74.6406 38.9537 74.6406 38.9625C74.6406 38.9713 74.6438 38.9798 74.6496 38.9864C74.6555 38.9919 74.6632 38.9949 74.6713 38.9949C74.6793 38.9949 74.687 38.9919 74.6929 38.9864C74.8161 38.9129 74.9548 38.8694 75.0979 38.8595C75.241 38.8495 75.3845 38.8735 75.5166 38.9294C75.5242 38.9325 75.5326 38.9326 75.5403 38.9296C75.5479 38.9267 75.5541 38.9209 75.5576 38.9134C75.5608 38.9058 75.5608 38.8973 75.5579 38.8897C75.5549 38.8821 75.5491 38.8758 75.5417 38.8724H75.5371Z" fill="#263238"/>
<path d="M74.428 36.9788C74.4314 36.9907 74.4314 37.0034 74.428 37.0153C74.4232 37.0308 74.4129 37.044 74.399 37.0525C74.3851 37.0609 74.3686 37.0639 74.3527 37.0609C74.2558 37.0368 74.1661 36.9899 74.0911 36.924C74.016 36.8581 73.9579 36.7752 73.9215 36.6822C73.9187 36.6744 73.9175 36.6662 73.9181 36.6579C73.9187 36.6497 73.921 36.6416 73.9249 36.6343C73.9287 36.627 73.9341 36.6206 73.9406 36.6155C73.9471 36.6104 73.9545 36.6067 73.9626 36.6046C73.978 36.5996 73.9948 36.6008 74.0093 36.6081C74.0238 36.6153 74.0349 36.628 74.0401 36.6434C74.0713 36.7159 74.1188 36.7802 74.179 36.8313C74.2391 36.8823 74.3103 36.9188 74.3869 36.9377C74.3963 36.9412 74.4049 36.9466 74.412 36.9537C74.4191 36.9608 74.4246 36.9694 74.428 36.9788Z" fill="#263238"/>
<path d="M78.548 36.2053C78.1285 35.4159 75.6 34.5147 75.1645 34.9984C75.1042 34.9667 75.038 34.9478 74.9701 34.943C74.9022 34.9381 74.834 34.9473 74.7698 34.97C74.7056 34.9927 74.6467 35.0284 74.597 35.0749C74.5472 35.1214 74.5075 35.1777 74.4805 35.2402C74.3836 35.4967 74.3646 35.7761 74.4258 36.0433C74.5245 36.0234 74.6242 36.009 74.7245 36C75.1554 36.6844 75.9283 37.2365 76.3866 37.5605C76.3827 38.0242 76.5444 38.4741 76.8426 38.829C76.5507 39.9333 76.6146 40.3462 76.6146 40.3462C78.7715 39.9264 78.9379 36.9399 78.548 36.2053Z" fill="#263238"/>
<path d="M77.6077 39.4177C77.3632 39.6393 77.0411 39.7549 76.7116 39.7394C76.2739 39.7166 76.1941 39.2831 76.4335 38.95C76.6478 38.6511 77.1357 38.2884 77.5165 38.4937C77.5977 38.5367 77.6671 38.5991 77.7183 38.6755C77.7696 38.7518 77.8012 38.8397 77.8102 38.9312C77.8192 39.0227 77.8054 39.115 77.7701 39.1999C77.7348 39.2848 77.679 39.3597 77.6077 39.4177Z" fill="#EEC1BB"/>
<path d="M75.0977 35.0664C75.0977 35.0664 75.5833 33.6519 77.3184 34.3592C77.3184 34.3592 76.0621 34.0147 75.7475 35.0664H75.0977Z" fill="#263238"/>
<path d="M75.2218 35.5161C75.2116 35.5159 75.2016 35.513 75.1928 35.5078C75.184 35.5026 75.1767 35.4953 75.1716 35.4864C75.1556 35.459 74.7541 34.7586 75.0119 34.2909C75.1442 34.0468 75.4294 33.9145 75.8538 33.8985C75.8613 33.8982 75.8688 33.8994 75.8758 33.9019C75.8828 33.9045 75.8893 33.9085 75.8948 33.9136C75.9003 33.9186 75.9048 33.9248 75.9079 33.9316C75.9111 33.9384 75.9128 33.9458 75.9131 33.9532C75.9132 33.9682 75.9075 33.9826 75.8974 33.9937C75.8872 34.0047 75.8733 34.0114 75.8584 34.0126C75.4751 34.0262 75.2241 34.1403 75.1123 34.3457C74.8842 34.7586 75.2674 35.4225 75.2697 35.4294C75.2773 35.4428 75.2794 35.4586 75.2756 35.4735C75.2718 35.4884 75.2623 35.5012 75.2492 35.5092C75.2407 35.5136 75.2313 35.5159 75.2218 35.5161Z" fill="#263238"/>
<path d="M79.0864 38.268C79.0717 38.2675 79.0577 38.2612 79.0475 38.2506C79.0373 38.2399 79.0316 38.2257 79.0316 38.211C79.0453 36.6573 78.0483 36.0846 78.0369 36.0801C78.024 36.0724 78.0145 36.0602 78.0102 36.0458C78.006 36.0314 78.0074 36.0159 78.0141 36.0025C78.0177 35.9959 78.0225 35.9901 78.0284 35.9853C78.0342 35.9806 78.0409 35.9771 78.0481 35.975C78.0553 35.9729 78.0629 35.9722 78.0704 35.973C78.0778 35.9738 78.0851 35.9761 78.0917 35.9797C78.0917 35.9797 79.1594 36.5866 79.1457 38.211C79.1457 38.2187 79.1442 38.2263 79.1412 38.2334C79.1382 38.2404 79.1337 38.2468 79.1282 38.2522C79.1227 38.2575 79.1161 38.2616 79.1089 38.2644C79.1017 38.2671 79.0941 38.2683 79.0864 38.268Z" fill="#263238"/>
<path d="M75.5586 42.6001L76.4455 43.4671C76.4455 43.4671 76.5002 44.6626 78.1031 44.8656C79.7059 45.0687 83.2262 42.2236 84.6216 42.9241L84.9362 42.2259L84.1473 41.6601C84.1473 41.6601 83.0894 41.3453 81.8035 42.2693C80.5176 43.1933 78.2034 45.4292 76.71 43.41L77.166 42.5887L77.068 42.3491L76.7168 42.7096L76.0556 42.8465L75.8618 42.4176L75.5586 42.6001Z" fill="#467BFF"/>
<path d="M77.3068 40.5793C77.3684 40.8462 77.3502 41.3961 76.4929 42.0509L76.2421 42.5072L76.0141 42.1148C75.5581 41.9231 75.7382 41.1383 75.5718 41.1907L74.7852 42.1741C74.8987 42.663 75.0551 43.1409 75.2526 43.6023L76.0072 42.4866L76.2489 42.6988L76.5271 42.3543L77.4391 42.9247C77.4391 42.9247 78.5563 41.7953 78.4354 40.6979L77.4186 40.4561C77.4023 40.4538 77.3857 40.4554 77.3703 40.461C77.3549 40.4666 77.341 40.4758 77.33 40.488C77.319 40.5002 77.3111 40.5148 77.3071 40.5308C77.303 40.5467 77.3029 40.5633 77.3068 40.5793Z" fill="#263238"/>
<path opacity="0.2" d="M77.3068 40.5793C77.3684 40.8462 77.3502 41.3961 76.4929 42.0509L76.2421 42.5072L76.0141 42.1148C75.5581 41.9231 75.7382 41.1383 75.5718 41.1907L74.7852 42.1741C74.8987 42.663 75.0551 43.1409 75.2526 43.6023L76.0072 42.4866L76.2489 42.6988L76.5271 42.3543L77.4391 42.9247C77.4391 42.9247 78.5563 41.7953 78.4354 40.6979L77.4186 40.4561C77.4023 40.4538 77.3857 40.4554 77.3703 40.461C77.3549 40.4666 77.341 40.4758 77.33 40.488C77.319 40.5002 77.3111 40.5148 77.3071 40.5308C77.303 40.5467 77.3029 40.5633 77.3068 40.5793Z" fill="white"/>
<path d="M76.4459 49.8096L77.6999 51.0233L77.3191 51.2104L76.0469 50.1678L76.4459 49.8096Z" fill="#263238"/>
<path opacity="0.2" d="M76.4459 49.8096L77.6999 51.0233L77.3191 51.2104L76.0469 50.1678L76.4459 49.8096Z" fill="white"/>
<path d="M66.7709 46.8965L66.9626 48.5072L66.5451 48.4251L66.1641 47.0539L66.7709 46.8965Z" fill="#263238"/>
<path opacity="0.2" d="M66.7709 46.8965L66.9626 48.5072L66.5451 48.4251L66.1641 47.0539L66.7709 46.8965Z" fill="white"/>
<path d="M72.3446 16.9543V30.0411C72.0216 30.3078 71.6733 30.5424 71.3049 30.7415C68.7969 32.099 66.2889 31.0974 63.7809 30.0707C60.8807 28.8844 57.9783 27.666 55.0781 30.0411V16.9543C57.5861 14.901 60.069 15.5261 62.5656 16.498C65.3951 17.5954 68.2269 19.1469 71.0564 17.7802C71.5177 17.5583 71.9503 17.281 72.3446 16.9543Z" fill="#467BFF"/>
<path d="M55.1183 38.2086C55.0227 38.2086 54.931 38.1706 54.8634 38.103C54.7958 38.0354 54.7578 37.9437 54.7578 37.8481V16.3266C54.7578 16.2308 54.7957 16.1389 54.8633 16.0709C54.9308 16.003 55.0225 15.9645 55.1183 15.9639C55.2141 15.9645 55.3058 16.003 55.3733 16.0709C55.4409 16.1389 55.4788 16.2308 55.4788 16.3266V37.8481C55.4788 37.9437 55.4408 38.0354 55.3732 38.103C55.3056 38.1706 55.2139 38.2086 55.1183 38.2086Z" fill="#2E353A"/>
<path opacity="0.2" d="M71.3084 30.7419C68.8004 32.0994 66.2924 31.0978 63.7844 30.0711C62.8838 28.7341 64.0352 26.391 63.7092 23.4981C63.3626 20.3975 61.8852 18.1456 62.5692 16.4961C65.3986 17.5935 68.2304 19.1449 71.0599 17.7783C69.8697 23.044 71.867 22.987 71.3084 30.7419Z" fill="black"/>
<path d="M88.9229 77.5881C88.9229 77.5881 88.0839 77.5425 87.9995 75.2473C87.9152 72.9521 89.3949 72.3384 90.5326 72.619C90.5326 72.619 90.3662 70.9854 91.1026 71.0448C91.8391 71.1041 91.7866 72.1969 91.7866 72.1969C91.7866 72.1969 92.0374 69.8789 93.0429 69.8789C94.0484 69.8789 93.0429 72.6167 93.0429 72.6167C93.0429 72.6167 94.436 71.9482 94.9467 72.6167C95.4574 73.2852 94.306 74.07 94.306 74.07C94.306 74.07 96.1118 74.6587 95.3571 76.5318C95.3571 76.5318 96.6157 76.728 96.9668 77.5653C96.9668 77.5653 96.8665 75.8747 97.3179 75.9888C97.7693 76.1029 97.6713 77.5859 97.6713 77.5859C97.6713 77.5859 98.426 75.9546 99.0803 76.5318C99.7347 77.109 98.7771 78.4871 98.7771 78.4871C98.7771 78.4871 100.036 77.8779 100.236 78.6855C100.437 79.4932 99.5318 79.7989 99.5318 79.7989C99.5318 79.7989 100.84 79.4955 100.84 80.9967C100.84 80.9967 103.349 80.7686 103.96 82.1055H88.9708L88.9229 77.5881Z" fill="#263238"/>
<path opacity="0.3" d="M88.9229 77.5881C88.9229 77.5881 88.0839 77.5425 87.9995 75.2473C87.9152 72.9521 89.3949 72.3384 90.5326 72.619C90.5326 72.619 90.3662 70.9854 91.1026 71.0448C91.8391 71.1041 91.7866 72.1969 91.7866 72.1969C91.7866 72.1969 92.0374 69.8789 93.0429 69.8789C94.0484 69.8789 93.0429 72.6167 93.0429 72.6167C93.0429 72.6167 94.436 71.9482 94.9467 72.6167C95.4574 73.2852 94.306 74.07 94.306 74.07C94.306 74.07 96.1118 74.6587 95.3571 76.5318C95.3571 76.5318 96.6157 76.728 96.9668 77.5653C96.9668 77.5653 96.8665 75.8747 97.3179 75.9888C97.7693 76.1029 97.6713 77.5859 97.6713 77.5859C97.6713 77.5859 98.426 75.9546 99.0803 76.5318C99.7347 77.109 98.7771 78.4871 98.7771 78.4871C98.7771 78.4871 100.036 77.8779 100.236 78.6855C100.437 79.4932 99.5318 79.7989 99.5318 79.7989C99.5318 79.7989 100.84 79.4955 100.84 80.9967C100.84 80.9967 103.349 80.7686 103.96 82.1055H88.9708L88.9229 77.5881Z" fill="white"/>
<path d="M95.0272 82.1078L87.6559 64.0382H82.877L79.1128 56.9723L69.8742 55.065L65.7656 48.3186H60.9754L58.9211 33.8994L52.2475 34.2302L50.0245 43.0848L45.574 43.4453L39.5753 60.7026L33.1115 62.6784L28.6336 70.3397L22.4228 70.8759L17.5117 82.1078H95.0272Z" fill="#2E353A"/>
<path opacity="0.4" d="M95.0272 82.1078L87.6559 64.0382H82.877L79.1128 56.9723L69.8742 55.065L65.7656 48.3186H60.9754L58.9211 33.8994L52.2475 34.2302L50.0245 43.0848L45.574 43.4453L39.5753 60.7026L33.1115 62.6784L28.6336 70.3397L22.4228 70.8759L17.5117 82.1078H95.0272Z" fill="white"/>
<path opacity="0.2" d="M45.5768 43.4453L52.2504 45.1291L53.8486 63.2351L59.4392 64.693L61.5778 82.1078H53.6206L50.1984 63.2351L39.5781 60.7027L45.5768 43.4453Z" fill="white"/>
<path opacity="0.2" d="M33.1107 62.6787L47.4565 63.6849L48.1405 82.1081H40.5139L38.6352 71.5378L33.8814 70.9971L31.1431 78.4257V70.9971L28.6328 70.34L33.1107 62.6787Z" fill="white"/>
<path opacity="0.2" d="M22.4228 70.876L28.6336 72.0806L29.2058 82.1079H17.5117L22.4228 70.876Z" fill="white"/>
<path opacity="0.2" d="M52.2461 34.2302V43.4453L54.6424 44.4902L55.4404 61.978L59.4349 62.6784L58.5207 48.4555L60.9739 48.3186L58.9197 33.8994L52.2461 34.2302Z" fill="white"/>
<path opacity="0.2" d="M65.7668 48.3184L60.9766 50.3033L61.5762 62.6782L69.4741 64.2638L67.4221 56.2922L69.8754 55.0648L65.7668 48.3184Z" fill="white"/>
<path opacity="0.2" d="M79.1136 56.9727L69.875 58.0039L71.7058 64.2644L78.4866 66.2379L81.8359 82.1081L79.891 67.8646L82.8778 64.0385L79.1136 56.9727Z" fill="white"/>
<path opacity="0.2" d="M76.3836 66.78C76.2126 66.6705 68.342 65.6963 68.342 65.6963L62.5234 66.5404V82.1072H79.8993L76.3836 66.78Z" fill="white"/>
<path opacity="0.2" d="M37.5325 72.6213L33.9393 72.1992L31.543 82.1078H38.3875L37.5325 72.6213Z" fill="white"/>
<path opacity="0.2" d="M87.6568 64.0381L81.8359 67.8642L83.6212 82.1077H95.028L87.6568 64.0381Z" fill="white"/>
<path d="M15.9119 82.1073H21.1696C21.3295 81.9452 21.4752 81.7696 21.6051 81.5825C21.6051 81.5825 19.7651 74.8315 18.2694 72.6846C16.7737 70.5377 19.1814 77.5169 19.1814 77.5169C19.1814 77.5169 17.077 73.0816 16.4203 73.2231C15.8549 73.344 17.8659 76.9146 18.4359 77.9047C17.9343 77.0583 16.2858 74.4186 15.4947 74.9388C14.553 75.5662 18.2307 79.5132 18.2307 79.5132C18.2307 79.5132 14.9247 77.0332 14.5827 77.7245C14.2407 78.4158 17.7747 80.6174 17.7747 80.6174C17.7747 80.6174 14.4117 79.933 14.0605 81.1217C13.8941 81.7879 14.9406 82.0251 15.9119 82.1073Z" fill="#467BFF"/>
<path opacity="0.2" d="M15.9119 82.1073H21.1696C21.3295 81.9452 21.4752 81.7696 21.6051 81.5825C21.6051 81.5825 19.7651 74.8315 18.2694 72.6846C16.7737 70.5377 19.1814 77.5169 19.1814 77.5169C19.1814 77.5169 17.077 73.0816 16.4203 73.2231C15.8549 73.344 17.8659 76.9146 18.4359 77.9047C17.9343 77.0583 16.2858 74.4186 15.4947 74.9388C14.553 75.5662 18.2307 79.5132 18.2307 79.5132C18.2307 79.5132 14.9247 77.0332 14.5827 77.7245C14.2407 78.4158 17.7747 80.6174 17.7747 80.6174C17.7747 80.6174 14.4117 79.933 14.0605 81.1217C13.8941 81.7879 14.9406 82.0251 15.9119 82.1073Z" fill="white"/>
<path d="M21.521 81.0904C21.5008 81.0907 21.4808 81.0855 21.4631 81.0755C21.4455 81.0655 21.4309 81.0509 21.4207 81.0334C21.3842 80.9649 17.6405 74.2208 13.4704 72.1948C13.4569 72.1882 13.4448 72.179 13.4349 72.1678C13.4249 72.1566 13.4173 72.1435 13.4124 72.1293C13.4076 72.1151 13.4055 72.1 13.4065 72.085C13.4074 72.0701 13.4113 72.0554 13.4179 72.0419C13.4316 72.0151 13.4552 71.9946 13.4837 71.9848C13.5122 71.975 13.5434 71.9767 13.5707 71.9895C17.8046 74.0428 21.5826 80.8531 21.6214 80.9216C21.6353 80.9483 21.6384 80.9794 21.6299 81.0084C21.6214 81.0373 21.602 81.0618 21.5758 81.0767C21.5589 81.0855 21.5401 81.0902 21.521 81.0904Z" fill="#467BFF"/>
<path d="M13.1014 72.2337C13.1294 72.3166 13.1814 72.3894 13.2507 72.4427C13.3201 72.4961 13.4037 72.5278 13.491 72.5336C13.5783 72.5395 13.6654 72.5194 13.7413 72.4758C13.8171 72.4322 13.8784 72.3671 13.9173 72.2887C13.9561 72.2103 13.9709 72.1221 13.9597 72.0353C13.9485 71.9485 13.9118 71.867 13.8543 71.8011C13.7968 71.7351 13.721 71.6877 13.6365 71.6648C13.5521 71.6419 13.4627 71.6446 13.3798 71.6725C13.3246 71.691 13.2736 71.7202 13.2298 71.7585C13.1859 71.7967 13.1501 71.8432 13.1242 71.8954C13.0984 71.9475 13.083 72.0042 13.0791 72.0623C13.0752 72.1203 13.0828 72.1786 13.1014 72.2337Z" fill="#467BFF"/>
<path d="M15.5901 75.1651C15.606 75.2123 15.631 75.2559 15.6637 75.2934C15.6965 75.3309 15.7363 75.3616 15.7809 75.3838C15.8255 75.4059 15.874 75.419 15.9237 75.4224C15.9733 75.4258 16.0232 75.4194 16.0704 75.4035C16.1176 75.3876 16.1612 75.3626 16.1987 75.3299C16.2362 75.2972 16.2669 75.2574 16.289 75.2128C16.3112 75.1682 16.3243 75.1196 16.3277 75.07C16.3311 75.0203 16.3247 74.9704 16.3088 74.9233C16.2767 74.828 16.2081 74.7493 16.118 74.7046C16.028 74.6599 15.9238 74.6528 15.8285 74.6848C15.7332 74.7169 15.6546 74.7855 15.6099 74.8756C15.5651 74.9657 15.558 75.0698 15.5901 75.1651Z" fill="#467BFF"/>
<path d="M16.8293 73.5861C16.8537 73.6572 16.8989 73.7194 16.9588 73.7648C17.0188 73.8101 17.0909 73.8366 17.166 73.8408C17.2411 73.8451 17.3157 73.8269 17.3804 73.7885C17.4451 73.7502 17.4969 73.6934 17.5293 73.6255C17.5616 73.5576 17.573 73.4817 17.562 73.4073C17.551 73.3329 17.5181 73.2634 17.4674 73.2078C17.4168 73.1522 17.3508 73.1129 17.2778 73.0949C17.2048 73.077 17.128 73.0812 17.0574 73.107C16.9642 73.141 16.8881 73.2103 16.8454 73.2999C16.8027 73.3895 16.7969 73.4923 16.8293 73.5861Z" fill="#467BFF"/>
<path d="M16.5033 76.3063C16.5274 76.3771 16.5719 76.4392 16.6312 76.4847C16.6905 76.5303 16.7619 76.5573 16.8365 76.5623C16.9111 76.5673 16.9856 76.5501 17.0504 76.5129C17.1153 76.4757 17.1677 76.4201 17.201 76.3531C17.2343 76.2862 17.247 76.2109 17.2376 76.1367C17.2282 76.0625 17.197 75.9928 17.148 75.9363C17.099 75.8798 17.0344 75.839 16.9623 75.8192C16.8902 75.7994 16.8139 75.8014 16.7429 75.8249C16.6478 75.8576 16.5693 75.9264 16.5245 76.0165C16.4797 76.1066 16.4721 76.2106 16.5033 76.3063Z" fill="#467BFF"/>
<path d="M18.4914 75.4626C18.6796 75.3713 18.7582 75.1447 18.6669 74.9564C18.5757 74.7682 18.3492 74.6896 18.161 74.7809C17.9729 74.8723 17.8943 75.0989 17.9855 75.2871C18.0767 75.4753 18.3032 75.5539 18.4914 75.4626Z" fill="#467BFF"/>
<path d="M14.9224 72.0968C14.9469 72.1679 14.992 72.2301 15.052 72.2755C15.112 72.3209 15.1841 72.3474 15.2592 72.3516C15.3342 72.3558 15.4089 72.3376 15.4736 72.2993C15.5383 72.2609 15.5901 72.2042 15.6224 72.1363C15.6548 72.0684 15.6661 71.9924 15.6551 71.918C15.6441 71.8436 15.6112 71.7742 15.5606 71.7186C15.51 71.6629 15.444 71.6237 15.3709 71.6057C15.2979 71.5877 15.2212 71.5919 15.1506 71.6177C15.0577 71.6522 14.9819 71.7216 14.9394 71.811C14.8968 71.9005 14.8907 72.003 14.9224 72.0968Z" fill="#467BFF"/>
<path d="M14.1123 73.9624C14.084 73.962 14.0569 73.951 14.0362 73.9316C14.0156 73.9122 14.0029 73.8858 14.0006 73.8575C13.999 73.8426 14.0005 73.8276 14.0048 73.8133C14.0092 73.799 14.0163 73.7857 14.0259 73.7742C14.0355 73.7627 14.0472 73.7533 14.0605 73.7464C14.0738 73.7396 14.0883 73.7354 14.1032 73.7343L15.6992 73.602L15.1611 72.0049C15.1563 71.9899 15.1546 71.9742 15.1559 71.9585C15.1572 71.9428 15.1615 71.9275 15.1687 71.9136C15.1833 71.8853 15.2084 71.864 15.2387 71.8543C15.2689 71.8447 15.3017 71.8474 15.33 71.8619C15.3582 71.8765 15.3795 71.9016 15.3891 71.9319L16.0207 73.8073L14.1237 73.9647L14.1123 73.9624Z" fill="#467BFF"/>
<path d="M15.9637 75.2293C15.9334 75.2309 15.9038 75.2203 15.8813 75.2C15.8589 75.1796 15.8454 75.1512 15.8439 75.121C15.8424 75.0907 15.8529 75.0611 15.8733 75.0386C15.8936 75.0162 15.922 75.0027 15.9523 75.0012L17.0634 74.8848V73.4657C17.0634 73.4355 17.0754 73.4065 17.0968 73.3851C17.1182 73.3637 17.1472 73.3517 17.1774 73.3517C17.1926 73.351 17.2077 73.3535 17.2218 73.359C17.236 73.3645 17.2488 73.3729 17.2595 73.3836C17.2703 73.3944 17.2786 73.4072 17.2841 73.4213C17.2896 73.4355 17.2922 73.4506 17.2915 73.4657V75.0902L15.9751 75.2293H15.9637Z" fill="#467BFF"/>
<path d="M18.4146 76.3927L16.8574 76.2969C16.8424 76.296 16.8277 76.2921 16.8143 76.2856C16.8008 76.279 16.7887 76.2698 16.7788 76.2586C16.7688 76.2474 16.7612 76.2343 16.7563 76.2201C16.7514 76.2059 16.7493 76.1909 16.7502 76.176C16.7511 76.161 16.7549 76.1463 16.7615 76.1328C16.7681 76.1193 16.7772 76.1073 16.7884 76.0973C16.7997 76.0873 16.8127 76.0797 16.8269 76.0748C16.8411 76.0699 16.8561 76.0678 16.871 76.0687L18.1912 76.1486L18.214 75.1128C18.2151 75.0827 18.2279 75.0543 18.2496 75.0334C18.2713 75.0126 18.3002 75.001 18.3302 75.001C18.3452 75.0013 18.36 75.0045 18.3737 75.0105C18.3874 75.0165 18.3998 75.0252 18.4102 75.036C18.4206 75.0468 18.4287 75.0595 18.4342 75.0735C18.4396 75.0875 18.4423 75.1023 18.442 75.1173L18.4146 76.3927Z" fill="#467BFF"/>
<path d="M13.6847 73.9787C13.7092 74.0498 13.7543 74.112 13.8143 74.1573C13.8743 74.2027 13.9464 74.2292 14.0215 74.2334C14.0966 74.2377 14.1712 74.2194 14.2359 74.1811C14.3006 74.1428 14.3524 74.086 14.3847 74.0181C14.4171 73.9502 14.4285 73.8742 14.4174 73.7998C14.4064 73.7255 14.3735 73.656 14.3229 73.6004C14.2723 73.5448 14.2063 73.5055 14.1333 73.4875C14.0602 73.4696 13.9835 73.4737 13.9129 73.4995C13.8197 73.5336 13.7435 73.6029 13.7009 73.6925C13.6582 73.7821 13.6524 73.8848 13.6847 73.9787Z" fill="#467BFF"/>
<path d="M18.8791 82.1081C18.8497 82.026 18.8254 81.9421 18.8061 81.8571C18.8061 81.8571 17.331 81.9141 17.2101 81.4875C17.0893 81.0609 18.8061 80.616 18.8061 80.616C18.8061 80.616 16.704 79.5368 17.1212 79.0349C17.5384 78.5329 19.155 79.5391 19.155 79.5391C19.155 79.5391 17.2671 77.3443 17.7254 76.888C18.1837 76.4317 19.7774 78.4211 19.7774 78.4211C19.7774 78.4211 18.2133 75.1038 18.813 74.9715C19.4126 74.8392 20.751 78.1656 20.751 78.1656C20.751 78.1656 20.1513 73.7851 20.751 73.7098C21.3506 73.6345 21.663 78.647 21.663 78.647C21.663 78.647 21.891 73.9106 22.372 74.173C22.8531 74.4353 22.372 79.3817 22.372 79.3817C22.372 79.3817 23.2704 75.1631 23.7606 75.64C24.2508 76.1168 22.8919 80.4631 22.8919 80.4631C22.8919 80.4631 23.6466 78.5421 24.0022 79.1375C24.2302 79.5208 23.5804 81.0654 23.0902 82.1149L18.8791 82.1081Z" fill="#467BFF"/>
<path opacity="0.4" d="M18.8791 82.1081C18.8497 82.026 18.8254 81.9421 18.8061 81.8571C18.8061 81.8571 17.331 81.9141 17.2101 81.4875C17.0893 81.0609 18.8061 80.616 18.8061 80.616C18.8061 80.616 16.704 79.5368 17.1212 79.0349C17.5384 78.5329 19.155 79.5391 19.155 79.5391C19.155 79.5391 17.2671 77.3443 17.7254 76.888C18.1837 76.4317 19.7774 78.4211 19.7774 78.4211C19.7774 78.4211 18.2133 75.1038 18.813 74.9715C19.4126 74.8392 20.751 78.1656 20.751 78.1656C20.751 78.1656 20.1513 73.7851 20.751 73.7098C21.3506 73.6345 21.663 78.647 21.663 78.647C21.663 78.647 21.891 73.9106 22.372 74.173C22.8531 74.4353 22.372 79.3817 22.372 79.3817C22.372 79.3817 23.2704 75.1631 23.7606 75.64C24.2508 76.1168 22.8919 80.4631 22.8919 80.4631C22.8919 80.4631 23.6466 78.5421 24.0022 79.1375C24.2302 79.5208 23.5804 81.0654 23.0902 82.1149L18.8791 82.1081Z" fill="white"/>
<path d="M94.1674 82.0074C94.1674 82.0074 95.2732 79.3061 95.0931 78.7494C94.913 78.1928 94.0785 80.1708 94.0785 80.1708C94.0785 80.1708 94.5345 75.5439 93.8095 75.2336C93.0844 74.9233 93.2828 79.2012 93.2828 79.2012C93.2828 79.2012 92.1223 72.8129 91.0165 72.9293C89.9107 73.0457 92.3662 79.2788 92.3662 79.2788C92.3662 79.2788 90.8249 76.3904 90.0976 76.7554C89.3703 77.1204 91.7825 80.0317 91.7825 80.0317C91.7825 80.0317 90.5422 79.2012 90.3689 79.6529C90.1957 80.1047 92.7173 81.7382 94.1674 82.0074Z" fill="#263238"/>
<path opacity="0.2" d="M94.1674 82.0074C94.1674 82.0074 95.2732 79.3061 95.0931 78.7494C94.913 78.1928 94.0785 80.1708 94.0785 80.1708C94.0785 80.1708 94.5345 75.5439 93.8095 75.2336C93.0844 74.9233 93.2828 79.2012 93.2828 79.2012C93.2828 79.2012 92.1223 72.8129 91.0165 72.9293C89.9107 73.0457 92.3662 79.2788 92.3662 79.2788C92.3662 79.2788 90.8249 76.3904 90.0976 76.7554C89.3703 77.1204 91.7825 80.0317 91.7825 80.0317C91.7825 80.0317 90.5422 79.2012 90.3689 79.6529C90.1957 80.1047 92.7173 81.7382 94.1674 82.0074Z" fill="white"/>
<path d="M94.1673 82.0072C94.1673 82.0072 96.8144 82.2605 97.1951 81.9639C97.5759 81.6673 95.8089 81.5783 95.8089 81.5783C95.8089 81.5783 99.5162 80.6292 99.5481 79.9812C99.58 79.3333 96.3333 80.6954 96.3333 80.6954C96.3333 80.6954 100.95 77.9895 100.542 77.1704C100.134 76.3514 96.0164 80.0063 96.0164 80.0063C96.0164 80.0063 97.813 77.9986 97.3251 77.5377C96.8372 77.0769 95.2731 79.7668 95.2731 79.7668C95.2731 79.7668 95.5649 78.5735 95.1659 78.5667C94.7669 78.5599 93.9712 80.8026 94.1673 82.0072Z" fill="#263238"/>
<path opacity="0.2" d="M94.1673 82.0072C94.1673 82.0072 96.8144 82.2605 97.1951 81.9639C97.5759 81.6673 95.8089 81.5783 95.8089 81.5783C95.8089 81.5783 99.5162 80.6292 99.5481 79.9812C99.58 79.3333 96.3333 80.6954 96.3333 80.6954C96.3333 80.6954 100.95 77.9895 100.542 77.1704C100.134 76.3514 96.0164 80.0063 96.0164 80.0063C96.0164 80.0063 97.813 77.9986 97.3251 77.5377C96.8372 77.0769 95.2731 79.7668 95.2731 79.7668C95.2731 79.7668 95.5649 78.5735 95.1659 78.5667C94.7669 78.5599 93.9712 80.8026 94.1673 82.0072Z" fill="white"/>
<path d="M94.1652 82.0074C94.1652 82.0074 97.7562 80.1114 97.9477 79.4977C98.1393 78.884 96.1237 80.1365 96.1237 80.1365C96.1237 80.1365 99.4913 76.242 99.0262 75.4959C98.5611 74.7499 96.0211 78.7517 96.0211 78.7517C96.0211 78.7517 99.049 72.2197 97.9682 71.6265C96.8875 71.0333 95.1433 78.2429 95.1433 78.2429C95.1433 78.2429 95.5879 74.6426 94.6873 74.5103C93.7867 74.378 94.1242 78.5509 94.1242 78.5509C94.1242 78.5509 93.5314 77.0086 93.0868 77.3075C92.6422 77.6063 93.0252 80.8324 94.1652 82.0074Z" fill="#263238"/>
<path opacity="0.4" d="M94.1652 82.0074C94.1652 82.0074 97.7562 80.1114 97.9477 79.4977C98.1393 78.884 96.1237 80.1365 96.1237 80.1365C96.1237 80.1365 99.4913 76.242 99.0262 75.4959C98.5611 74.7499 96.0211 78.7517 96.0211 78.7517C96.0211 78.7517 99.049 72.2197 97.9682 71.6265C96.8875 71.0333 95.1433 78.2429 95.1433 78.2429C95.1433 78.2429 95.5879 74.6426 94.6873 74.5103C93.7867 74.378 94.1242 78.5509 94.1242 78.5509C94.1242 78.5509 93.5314 77.0086 93.0868 77.3075C92.6422 77.6063 93.0252 80.8324 94.1652 82.0074Z" fill="white"/>
<path d="M54.4141 63.1503L60.4013 64.3389L60.9782 69.3583L61.3703 64.1473L62.5537 63.1594C62.5537 63.1594 60.9326 60.6771 60.2417 60.992C59.3434 61.4026 58.6777 59.1531 57.6813 59.6869C57.3302 59.874 57.5035 60.4741 57.2823 60.7182C56.9175 61.1174 56.4524 61.0399 56.0123 61.2589C55.1482 61.681 54.8404 62.2514 54.4141 63.1503Z" fill="#263238"/>
<path d="M61.6655 62.4569C61.6655 62.4569 61.132 59.354 61.5013 58.9C61.8707 58.446 61.9345 60.5929 61.9345 60.5929C61.9345 60.5929 63.1749 56.1097 63.9683 56.0869C64.7618 56.0641 63.0244 59.9655 63.0244 59.9655C63.0244 59.9655 66.417 54.4214 67.402 54.9462C68.387 55.4709 63.8452 60.3785 63.8452 60.3785C63.8452 60.3785 66.3258 58.243 66.873 58.8453C67.4202 59.4476 64.1188 61.2933 64.1188 61.2933C64.1188 61.2933 65.5734 60.9648 65.5734 61.4508C65.5734 61.9367 63.1224 62.7421 61.6655 62.4569Z" fill="#467BFF"/>
<path opacity="0.2" d="M61.6655 62.4569C61.6655 62.4569 61.132 59.354 61.5013 58.9C61.8707 58.446 61.9345 60.5929 61.9345 60.5929C61.9345 60.5929 63.1749 56.1097 63.9683 56.0869C64.7618 56.0641 63.0244 59.9655 63.0244 59.9655C63.0244 59.9655 66.417 54.4214 67.402 54.9462C68.387 55.4709 63.8452 60.3785 63.8452 60.3785C63.8452 60.3785 66.3258 58.243 66.873 58.8453C67.4202 59.4476 64.1188 61.2933 64.1188 61.2933C64.1188 61.2933 65.5734 60.9648 65.5734 61.4508C65.5734 61.9367 63.1224 62.7421 61.6655 62.4569Z" fill="white"/>
<path d="M61.1772 62.0147C61.1772 62.0147 58.6281 61.5584 58.3819 61.1386C58.1357 60.7188 59.8115 61.28 59.8115 61.28C59.8115 61.28 56.697 59.0555 56.9045 58.435C57.1119 57.8144 59.6405 60.2602 59.6405 60.2602C59.6405 60.2602 56.3117 56.069 56.9888 55.453C57.666 54.837 60.1808 59.7331 60.1808 59.7331C60.1808 59.7331 59.2301 57.2098 59.8502 56.9588C60.4704 56.7079 60.972 59.7765 60.972 59.7765C60.972 59.7765 61.1293 58.5559 61.5032 58.6951C61.8771 58.8342 61.7928 60.9652 61.1772 62.0147Z" fill="#467BFF"/>
<path opacity="0.2" d="M61.1772 62.0147C61.1772 62.0147 58.6281 61.5584 58.3819 61.1386C58.1357 60.7188 59.8115 61.28 59.8115 61.28C59.8115 61.28 56.697 59.0555 56.9045 58.435C57.1119 57.8144 59.6405 60.2602 59.6405 60.2602C59.6405 60.2602 56.3117 56.069 56.9888 55.453C57.666 54.837 60.1808 59.7331 60.1808 59.7331C60.1808 59.7331 59.2301 57.2098 59.8502 56.9588C60.4704 56.7079 60.972 59.7765 60.972 59.7765C60.972 59.7765 61.1293 58.5559 61.5032 58.6951C61.8771 58.8342 61.7928 60.9652 61.1772 62.0147Z" fill="white"/>
<path d="M60.9838 61.6749C60.9838 61.6749 58.5237 59.2086 58.567 58.5606C58.6103 57.9127 60.0376 59.8177 60.0376 59.8177C60.0376 59.8177 58.3025 54.9672 59.007 54.4402C59.7115 53.9132 60.6327 58.5606 60.6327 58.5606C60.6327 58.5606 60.1767 51.3761 61.3873 51.2164C62.598 51.0567 61.6381 58.3986 61.6381 58.3986C61.6381 58.3986 62.5228 54.8828 63.4006 55.079C64.2784 55.2752 62.4749 59.0511 62.4749 59.0511C62.4749 59.0511 63.583 57.826 63.8908 58.2663C64.1986 58.7066 62.4749 60.995 60.9838 61.6749Z" fill="#467BFF"/>
<path opacity="0.4" d="M60.9838 61.6749C60.9838 61.6749 58.5237 59.2086 58.567 58.5606C58.6103 57.9127 60.0376 59.8177 60.0376 59.8177C60.0376 59.8177 58.3025 54.9672 59.007 54.4402C59.7115 53.9132 60.6327 58.5606 60.6327 58.5606C60.6327 58.5606 60.1767 51.3761 61.3873 51.2164C62.598 51.0567 61.6381 58.3986 61.6381 58.3986C61.6381 58.3986 62.5228 54.8828 63.4006 55.079C64.2784 55.2752 62.4749 59.0511 62.4749 59.0511C62.4749 59.0511 63.583 57.826 63.8908 58.2663C64.1986 58.7066 62.4749 60.995 60.9838 61.6749Z" fill="white"/>
<path d="M58.4805 63.9651L61.3669 64.5218L65.4231 64.0381C65.4231 64.0381 63.5261 61.7337 62.9766 61.9847C62.2584 62.311 61.7295 60.52 60.936 60.9443C60.6556 61.0949 60.7924 61.574 60.6168 61.7657C60.325 62.0851 59.9556 62.0235 59.6045 62.1992C58.916 62.5414 58.8247 63.2487 58.4805 63.9651Z" fill="#263238"/>
<path opacity="0.2" d="M58.4805 63.9657L60.3979 64.3399L60.9748 69.3592L61.3669 64.5315L65.4231 64.0478C65.4231 64.0478 63.5261 61.7435 62.9766 61.9945C62.2584 62.3207 61.7295 60.5297 60.936 60.9541C60.6556 61.1047 60.7924 61.5838 60.6168 61.7755C60.325 62.0949 59.9556 62.0333 59.6045 62.2089C58.916 62.542 58.8247 63.2493 58.4805 63.9657Z" fill="white"/>
<path d="M38.081 43.9512L38.9497 44.7725L39.5721 44.9026L40.4636 45.7467C40.4636 45.7467 40.0441 46.3741 39.6086 46.203C39.1731 46.0319 38.6966 45.3361 38.6966 45.3361L37.625 44.4234L38.081 43.9512Z" fill="#EBB376"/>
<path d="M38.7199 44.4367L38.2046 45.0664C38.2046 45.0664 37.7326 44.6648 37.1353 44.1082C36.2233 43.2594 35.0103 42.0548 34.7299 41.3703C34.2739 40.2296 34.6615 36.7936 34.6615 36.7936L36.6929 36.7822C36.6291 38.0644 35.7673 39.5976 35.7353 40.5901C35.7171 41.2015 36.8571 42.5225 37.7349 43.4442C38.2775 44.0169 38.7199 44.4367 38.7199 44.4367Z" fill="#467BFF"/>
<path d="M38.6528 44.0332L38.9425 44.4827L38.2741 45.1876L37.7812 44.9527L38.6528 44.0332Z" fill="#467BFF"/>
<path opacity="0.6" d="M38.6528 44.0332L38.9425 44.4827L38.2741 45.1876L37.7812 44.9527L38.6528 44.0332Z" fill="white"/>
<path opacity="0.2" d="M37.7349 43.4442C37.5592 43.6862 37.3581 43.9088 37.1353 44.1082C36.2233 43.2594 35.0103 42.0548 34.7299 41.3703C34.2739 40.2296 34.6615 36.7936 34.6615 36.7936L36.6929 36.7822C36.6291 38.0644 35.7673 39.5976 35.7353 40.5901C35.7171 41.2015 36.8571 42.5225 37.7349 43.4442Z" fill="black"/>
<path d="M46.2852 42.9356H47.4799L48.0225 42.6025H49.2492C49.2492 42.6025 49.3746 43.3463 48.9459 43.5266C48.5173 43.7068 47.6828 43.5266 47.6828 43.5266L46.2852 43.6064V42.9356Z" fill="#EBB376"/>
<path d="M40.4916 61.6896C40.3574 61.5413 40.1975 61.4184 40.0197 61.3268C40.0197 61.3268 39.5432 60.6834 39.5295 58.9609L38.825 58.6552C38.7046 58.605 38.5717 58.5932 38.4444 58.6214C38.3171 58.6496 38.2016 58.7163 38.1136 58.8126C38.089 58.8392 38.0683 58.8692 38.052 58.9016C37.986 59.0757 37.932 59.254 37.8902 59.4355C37.7543 60.0442 37.6553 60.6605 37.5938 61.2812L37.7283 61.3017L37.9563 60.1496C38.0361 59.7594 38.2664 60.2682 38.2869 60.704C38.3074 61.1398 38.4214 61.6166 39.281 61.774C40.2842 61.9497 40.7082 61.9748 40.4916 61.6896Z" fill="#263238"/>
<path d="M39.7107 56.1553L38.418 58.5737C38.418 58.5737 38.9378 61.3115 40.014 61.3275L39.485 58.7402L40.9442 56.6618L39.7107 56.1553Z" fill="#EBB376"/>
<path d="M26.9402 71.7061C26.8191 71.5472 26.67 71.4118 26.5001 71.3068C26.5001 71.3068 26.0783 70.6223 26.2106 68.9066L25.5266 68.5416C25.4109 68.4823 25.2798 68.46 25.1509 68.4775C25.0221 68.495 24.9018 68.5516 24.8061 68.6397C24.7783 68.664 24.7545 68.6925 24.7354 68.7241C24.6561 68.8922 24.5875 69.0652 24.5302 69.242C24.3409 69.8366 24.1886 70.4424 24.0742 71.0558L24.2042 71.0878L24.5325 69.9607C24.6442 69.5774 24.8312 70.1022 24.8152 70.5402C24.7993 70.9783 24.8722 71.4642 25.7135 71.681C26.7122 71.9479 27.134 72.0095 26.9402 71.7061Z" fill="#263238"/>
<path d="M25.8168 65.6094L25.1328 68.427C25.1328 68.427 25.4201 71.2082 26.5008 71.3063L26.193 68.6734L27.0115 66.2094L25.8168 65.6094Z" fill="#EBB376"/>
<path d="M40.4466 39.5566C39.9577 39.7933 39.4848 40.0616 39.0307 40.3597C38.7024 40.5695 38.3467 40.816 37.9568 41.1148C36.8402 41.9479 35.8708 42.9619 35.0886 44.115L30.6836 42.1119C31.2077 40.967 31.8174 39.8635 32.5076 38.8105C32.7356 38.4569 32.991 38.1055 33.2554 37.7701L33.276 37.7428C33.8699 36.9969 34.7177 36.4961 35.6573 36.3362C36.5969 36.1762 37.5625 36.3684 38.3695 36.8758C38.6432 37.0495 38.908 37.2368 39.1629 37.437C41.0713 38.9474 40.4466 39.5566 40.4466 39.5566Z" fill="#467BFF"/>
<path d="M40.3191 58.0763L38.8439 57.6451C38.8439 57.6451 42.2001 51.1816 41.6506 50.5725C41.0441 49.888 33.8986 50.2645 33.8986 50.2645C33.4312 51.4052 32.9159 52.6714 32.3824 53.9696C29.8083 60.2324 26.8124 67.4191 26.8124 67.4191L25.4102 67.0701L29.2862 48.8545C28.666 45.5029 30.6542 42.124 30.6542 42.124L35.5744 43.5682L35.522 44.5789C35.522 44.5789 44.6078 46.1212 44.6762 49.6735C44.7377 51.3345 40.3191 58.0763 40.3191 58.0763Z" fill="#263238"/>
<path opacity="0.2" d="M33.909 50.2551C33.4416 51.3958 32.9264 52.6621 32.3928 53.9603C32.1857 52.5681 31.6768 51.238 30.9017 50.0634C30.5471 49.6515 30.1663 49.2628 29.7617 48.8999C30.6395 49.2421 31.1981 48.8793 31.1981 48.8793C30.4206 47.1865 31.0248 45.4297 31.0248 45.4297C31.0568 49.0938 33.909 50.2551 33.909 50.2551Z" fill="black"/>
<path d="M31.2656 42.9583L33.8557 43.6975L33.9765 43.2207L31.4389 42.4473L31.2656 42.9583Z" fill="black"/>
<path d="M31.2645 42.3925L30.5938 42.1895L30.3086 42.6868L31.0546 42.899L31.2645 42.3925Z" fill="black"/>
<path d="M34.1377 43.2715L34.0625 43.7574L35.5947 44.1955L35.6653 43.7369L34.1377 43.2715Z" fill="black"/>
<path d="M40.3567 38.6807C41.1934 39.6572 41.6198 41.3637 42.2764 42.1029C42.9331 42.8421 47.0872 42.8444 47.0872 42.8444L47.1442 43.6544C47.1442 43.6544 43.1953 43.862 42.0826 43.36C40.97 42.8581 38.8906 40.0838 38.8906 40.0838L40.3567 38.6807Z" fill="#467BFF"/>
<path d="M46.7539 42.6025L47.2718 42.728V43.6999L46.7539 43.8688V42.6025Z" fill="#467BFF"/>
<path opacity="0.6" d="M46.7539 42.6025L47.2718 42.728V43.6999L46.7539 43.8688V42.6025Z" fill="white"/>
<path opacity="0.2" d="M39.0414 40.3325V40.3598C38.7128 40.5697 38.3569 40.8162 37.9668 41.115C37.9193 40.6877 37.9961 40.2557 38.1879 39.8709C38.3797 39.4861 38.6784 39.1647 39.0482 38.9453C38.9104 39.3971 38.908 39.8794 39.0414 40.3325Z" fill="black"/>
<path d="M41.5375 34.7543C41.5375 34.8593 41.5101 34.946 41.4553 34.9528C41.4006 34.9597 41.3504 34.8752 41.3412 34.7726C41.3321 34.6699 41.3686 34.5809 41.4234 34.5764C41.4781 34.5718 41.5283 34.6516 41.5375 34.7543Z" fill="#263238"/>
<path d="M41.3984 34.5835L41.565 34.4785C41.565 34.4785 41.4965 34.6793 41.3984 34.5835Z" fill="#263238"/>
<path d="M41.3125 35.0439C41.4074 35.237 41.5253 35.4178 41.6639 35.5824C41.6249 35.6336 41.5725 35.6731 41.5125 35.6965C41.4525 35.7198 41.3873 35.7261 41.3239 35.7147L41.3125 35.0439Z" fill="#D58745"/>
<path d="M38.7412 36.7716L38.7822 36.8035C38.9868 36.9559 39.2192 37.0667 39.4662 37.1298C40.1799 37.2918 40.6655 37.1914 40.9824 36.8674C41.4248 36.3815 41.5319 35.5236 41.4635 34.4901C41.4518 34.079 41.3749 33.6724 41.2355 33.2854C41.2345 33.2794 41.2345 33.2732 41.2355 33.2672C41.2355 33.2535 41.2355 33.2353 41.2173 33.2238C41.1292 33.0054 40.9879 32.8126 40.8064 32.6627C40.6248 32.5129 40.4086 32.4109 40.1776 32.366C39.9769 32.3222 39.772 32.3 39.5666 32.2998C37.5396 32.2884 37.1931 35.6286 38.7412 36.7716Z" fill="#EBB376"/>
<path opacity="0.2" d="M38.7812 36.803C38.9874 36.9467 39.2198 37.0482 39.4652 37.1018C40.1789 37.2615 40.6645 37.1383 40.9814 36.8098C40.5558 36.9175 40.1066 36.8831 39.7024 36.7117C39.5522 36.655 39.3909 36.6338 39.2312 36.6496C39.0714 36.6654 38.9174 36.7179 38.7812 36.803Z" fill="black"/>
<path d="M41.2243 33.2717C41.2457 33.6922 41.1413 34.1097 40.9244 34.4705C40.7075 34.8314 40.388 35.1194 40.0067 35.2977C40.0067 35.2977 39.439 36.7669 38.5931 36.792C37.4395 36.8263 36.4157 35.195 36.8079 33.5135C37.3163 31.3415 40.5995 31.1499 41.2243 33.2717Z" fill="#263238"/>
<path d="M38.7618 31.7789C38.7618 31.7789 40.107 31.4321 40.8549 31.9705C41.7258 32.6002 42.0587 33.255 41.035 34.2748C41.035 34.2748 38.7687 33.5516 38.0163 33.709C37.5773 33.8009 37.1465 33.9283 36.7281 34.09C36.5616 32.5956 38.0049 31.4845 38.7618 31.7789Z" fill="#263238"/>
<path d="M40.9026 34.223C40.889 34.2237 40.8754 34.2207 40.8633 34.2143C40.8513 34.2078 40.8412 34.1983 40.8342 34.1865C40.8282 34.1775 40.824 34.1675 40.8219 34.1569C40.8198 34.1463 40.8198 34.1354 40.8219 34.1248C40.824 34.1142 40.8282 34.1041 40.8342 34.0951C40.8403 34.0861 40.848 34.0784 40.857 34.0725C40.9474 34.0241 41.0476 33.9971 41.1501 33.9936C41.2525 33.99 41.3544 34.01 41.4479 34.0519C41.4581 34.0555 41.4674 34.061 41.4754 34.0683C41.4834 34.0756 41.4898 34.0844 41.4943 34.0942C41.4987 34.104 41.5012 34.1146 41.5015 34.1254C41.5017 34.1361 41.4998 34.1469 41.4958 34.1569C41.4923 34.1671 41.4867 34.1764 41.4794 34.1844C41.4722 34.1923 41.4634 34.1988 41.4536 34.2032C41.4438 34.2077 41.4332 34.2102 41.4224 34.2104C41.4116 34.2107 41.4009 34.2088 41.3909 34.2048C41.3218 34.1716 41.2462 34.1544 41.1696 34.1544C41.0929 34.1544 41.0173 34.1716 40.9483 34.2048C40.9346 34.2142 40.919 34.2204 40.9026 34.223Z" fill="#263238"/>
<path d="M40.606 34.1771C40.3686 34.1759 40.1324 34.1429 39.9037 34.0789C39.8892 34.0747 39.877 34.0649 39.8697 34.0516C39.8625 34.0384 39.8608 34.0227 39.865 34.0082C39.8697 33.994 39.8796 33.9821 39.8927 33.975C39.9058 33.9678 39.9212 33.9658 39.9357 33.9694C39.9357 33.9694 40.8477 34.2364 41.3971 33.8508C41.5317 33.747 41.64 33.6131 41.7133 33.4597C41.7866 33.3063 41.8228 33.1378 41.819 32.9679C41.8293 32.8488 41.8115 32.729 41.7672 32.6181C41.7228 32.5071 41.6531 32.4081 41.5636 32.329C40.777 31.6172 38.4605 31.9731 38.4377 31.9777C38.4302 31.979 38.4225 31.9788 38.4151 31.977C38.4077 31.9753 38.4007 31.9721 38.3946 31.9677C38.3884 31.9632 38.3832 31.9576 38.3792 31.951C38.3753 31.9445 38.3727 31.9373 38.3716 31.9298C38.3696 31.915 38.3735 31.9 38.3825 31.888C38.3914 31.8761 38.4047 31.8681 38.4195 31.8659C38.5152 31.8499 40.8135 31.4963 41.6411 32.2446C41.7433 32.335 41.8227 32.4482 41.873 32.5751C41.9233 32.7019 41.9431 32.8388 41.9307 32.9747C41.9343 33.1617 41.8939 33.3469 41.8127 33.5154C41.7315 33.6838 41.6118 33.8308 41.4633 33.9443C41.2079 34.1075 40.9088 34.1887 40.606 34.1771Z" fill="#263238"/>
<path d="M42.8804 36.1078C42.8671 36.1073 42.8543 36.1025 42.8439 36.0941C42.6023 35.8933 41.9319 35.9298 41.1636 35.9709C40.9136 35.9877 40.6631 35.9465 40.4317 35.8503C40.2003 35.7541 39.9943 35.6056 39.8298 35.4165C39.8243 35.4113 39.82 35.4052 39.817 35.3983C39.814 35.3914 39.8125 35.384 39.8125 35.3765C39.8125 35.3691 39.814 35.3617 39.817 35.3548C39.82 35.3479 39.8243 35.3417 39.8298 35.3366C39.8404 35.3262 39.8548 35.3203 39.8697 35.3203C39.8846 35.3203 39.8989 35.3262 39.9096 35.3366C40.0654 35.5086 40.2576 35.6438 40.4721 35.7322C40.6867 35.8206 40.9182 35.86 41.1499 35.8477C41.9775 35.8043 42.6319 35.7678 42.9078 35.996C42.9175 36.0033 42.9247 36.0135 42.9282 36.0251C42.9317 36.0368 42.9314 36.0493 42.9273 36.0608C42.9233 36.0722 42.9156 36.0821 42.9055 36.0889C42.8955 36.0957 42.8835 36.0991 42.8713 36.0986L42.8804 36.1078Z" fill="#263238"/>
<path d="M42.3716 32.231C42.3582 32.2313 42.3451 32.2264 42.3352 32.2173C41.1404 31.1883 38.7989 31.8272 38.7738 31.834C38.7668 31.8361 38.7594 31.8367 38.7521 31.8359C38.7448 31.835 38.7378 31.8327 38.7314 31.8291C38.725 31.8255 38.7194 31.8206 38.715 31.8148C38.7105 31.809 38.7072 31.8023 38.7054 31.7952C38.7033 31.788 38.7026 31.7805 38.7035 31.773C38.7043 31.7656 38.7065 31.7584 38.7101 31.7518C38.7137 31.7452 38.7186 31.7395 38.7244 31.7348C38.7303 31.7301 38.737 31.7266 38.7442 31.7245C38.8422 31.6971 41.1678 31.0628 42.4081 32.1306C42.4136 32.1359 42.418 32.1423 42.421 32.1493C42.424 32.1564 42.4256 32.164 42.4256 32.1717C42.4256 32.1793 42.424 32.1869 42.421 32.194C42.418 32.201 42.4136 32.2074 42.4081 32.2127C42.3988 32.2233 42.3857 32.2298 42.3716 32.231Z" fill="#263238"/>
<path d="M39.1903 31.7791C39.1903 31.7791 36.8442 31.2041 36.3198 34.1336C35.7954 37.0631 38.9486 38.8312 40.6814 38.7719C42.4142 38.7126 43.919 37.7224 44.2496 38.0213C44.2496 38.0213 44.0695 37.6289 43.0777 37.7795C43.0777 37.7795 44.3044 37.6882 44.4138 36.9056C44.4138 36.9056 42.6878 37.5331 42.0244 37.2045L42.722 37.1703C42.722 37.1703 42.2957 36.4562 40.67 35.9451C40.5665 35.9212 40.4693 35.8751 40.3853 35.81C40.3013 35.7449 40.2324 35.6623 40.1834 35.5679C40.1344 35.4736 40.1065 35.3697 40.1015 35.2635C40.0966 35.1572 40.1148 35.0512 40.1548 34.9527L39.1903 31.7791Z" fill="#263238"/>
<path d="M40.2083 39.4014C39.5234 39.4105 38.8545 39.1941 38.3045 38.7854C36.631 37.5374 36.3734 34.7836 36.3711 34.7563C36.3711 34.7411 36.3771 34.7266 36.3878 34.7159C36.3985 34.7052 36.413 34.6992 36.4281 34.6992C36.4432 34.6992 36.4577 34.7052 36.4684 34.7159C36.4791 34.7266 36.4851 34.7411 36.4851 34.7563C36.4851 34.7836 36.7405 37.4941 38.3729 38.7033C39.1117 39.2554 40.0259 39.4219 41.093 39.2029C41.1075 39.2002 41.1224 39.2032 41.1348 39.2113C41.1471 39.2193 41.1558 39.2319 41.1591 39.2463C41.1608 39.2536 41.161 39.2612 41.1597 39.2686C41.1584 39.2761 41.1557 39.2832 41.1517 39.2895C41.1477 39.2959 41.1424 39.3014 41.1362 39.3057C41.1301 39.31 41.1231 39.3131 41.1158 39.3147C40.8171 39.3747 40.513 39.4037 40.2083 39.4014Z" fill="#263238"/>
<path d="M40.6798 34.8893C40.6798 34.6611 40.4995 34.2984 40.1573 34.3508C39.8151 34.4033 39.6097 35.2794 40.4836 35.471C40.6091 35.4984 40.6843 35.3478 40.6798 34.8893Z" fill="#EBB376"/>
</svg>
